# xmcd
#
# Track frame offsets:
#	150
#	18793
#	34510
#	48620
#	60495
#	73533
#	84765
#	96203
#	113598
#	129188
#	146428
#	165298
#	182668
#	197355
#	214345
#	238768
#
# Disc length: 3362 seconds
#
# Revision: 1
# Processed by: cddbd v1.5.1PL0 Copyright (c) Steve Scherf et al.
# Submitted via: audiograbber 1.83.01
#
DISCID=c40d2010
DTITLE=Ricky Skaggs - San Antonio Rose
DYEAR=1993
DGENRE=Country
TTITLE0=San Antonio Rose
TTITLE1=New Star Shining
TTITLE2=Hummingbird
TTITLE3=Heartbreak Hurricane
TTITLE4=Kentucky Thunder
TTITLE5=Saviour, Save Me From Myself
TTITLE6=Only Daddy That'll Walk The Line
TTITLE7=Same Ol'Love
TTITLE8=Simple Life
TTITLE9=Country Boy
TTITLE10=Two Highways
TTITLE11=Rendez- Vous
TTITLE12=Heartbroke
TTITLE13=Can't You Hear Me Callin' 
TTITLE14=One Way Rider
TTITLE15=Crying My Heart Out Over You
EXTD=
EXTT0=
EXTT1=
EXTT2=
EXTT3=
EXTT4=
EXTT5=
EXTT6=
EXTT7=
EXTT8=
EXTT9=
EXTT10=
EXTT11=
EXTT12=
EXTT13=
EXTT14=
EXTT15=
PLAYORDER=
